<svg xmlns="http://www.w3.org/2000/svg" width="23" height="23" viewBox="0 0 23 23">
  <g id="icon_bag" data-name="icon bag" transform="translate(-146 -771)">
    <path id="circle" d="M383.086,3020.048a1.947,1.947,0,1,1,1.957-1.947,1.955,1.955,0,0,1-1.957,1.947Zm0-5.841A3.894,3.894,0,1,0,387,3018.1,3.905,3.905,0,0,0,383.086,3014.207Z" transform="translate(-218 -2227.995)" fill="#49b7f3" fill-rule="evenodd"/>
    <path id="bag" d="M376.724,3004.836h-5.873v-.974a2.933,2.933,0,0,1,2.936-2.92,2.737,2.737,0,0,1,2.936,2.92Zm3.615,2.784.719,5a5.884,5.884,0,0,1,1.926-.36l-.827-5.757a1.955,1.955,0,0,0-1.938-1.671h-1.538v-.974a4.74,4.74,0,0,0-4.893-4.867,4.886,4.886,0,0,0-4.893,4.868v.973h-1.238a2.287,2.287,0,0,0-2.238,1.671l-1.4,9.736a1.951,1.951,0,0,0,1.939,2.222h11.274a8.978,8.978,0,0,1,.205-1.947h-10.35a.976.976,0,0,1-.97-1.112l1.119-7.787a.978.978,0,0,1,.968-.837h.69v1.947a.978.978,0,0,0,1.957,0v-1.947h5.873v1.947a.978.978,0,0,0,1.957,0v-1.947h.69a.977.977,0,0,1,.968.837Z" transform="translate(-218 -2227.995)" fill-rule="evenodd"/>
  </g>
</svg>
