<svg xmlns="http://www.w3.org/2000/svg" width="141.029" height="141.029" viewBox="0 0 141.029 141.029">
  <g id="Grupo_337" data-name="Grupo 337" transform="translate(-6 -6)">
    <path id="Trazado_97" data-name="Trazado 97" d="M115.772,72.6a3.7,3.7,0,0,1-3.917-3.917V60.845a46.814,46.814,0,0,0-47.01-47.01,47.148,47.148,0,0,0-47.01,47.01V68.68A3.7,3.7,0,0,1,13.917,72.6,3.7,3.7,0,0,1,10,68.68V60.845a54.845,54.845,0,1,1,109.689,0V68.68A3.7,3.7,0,0,1,115.772,72.6ZM70.721,127.442H58.969a9.794,9.794,0,0,0,0,19.587H70.721a9.794,9.794,0,0,0,0-19.587Zm0,11.752H58.969a1.959,1.959,0,0,1,0-3.917H70.721a1.959,1.959,0,0,1,0,3.917Z" transform="translate(11.67)"/>
    <path id="Trazado_98" data-name="Trazado 98" d="M62.018,70.1H50.265a3.917,3.917,0,0,1,0-7.835H62.018a23.574,23.574,0,0,0,23.5-23.5,3.917,3.917,0,0,1,7.835,0A31.432,31.432,0,0,1,62.018,70.1Zm-23.5-23.5a23.377,23.377,0,0,1-18.8-9.4,4.213,4.213,0,0,1,.784-5.484,4.213,4.213,0,0,1,5.484.784A15.225,15.225,0,0,0,38.513,38.76a15.225,15.225,0,0,0,12.536-6.268,3.917,3.917,0,0,1,6.268,4.7A23.377,23.377,0,0,1,38.513,46.6Z" transform="translate(38.002 73.012)"/>
    <path id="Trazado_99" data-name="Trazado 99" d="M33.422,21H21.67A15.716,15.716,0,0,0,6,36.67V56.257a15.716,15.716,0,0,0,15.67,15.67H33.422A4.213,4.213,0,0,0,37.34,68.01V24.917A4.213,4.213,0,0,0,33.422,21ZM29.5,64.092H21.67a7.858,7.858,0,0,1-7.835-7.835V36.67a7.858,7.858,0,0,1,7.835-7.835H29.5ZM131.359,21H119.607a4.213,4.213,0,0,0-3.917,3.917V68.01a4.213,4.213,0,0,0,3.917,3.917h11.752a15.716,15.716,0,0,0,15.67-15.67V36.67A15.716,15.716,0,0,0,131.359,21Zm7.835,35.257a7.858,7.858,0,0,1-7.835,7.835h-7.835V28.835h7.835a7.858,7.858,0,0,1,7.835,7.835Z" transform="translate(0 43.762)" fill="#49b7f3"/>
  </g>
</svg>
