<svg xmlns="http://www.w3.org/2000/svg" width="18.326" height="22.818" viewBox="0 0 18.326 22.818">
  <g id="icon_user" data-name="icon user" transform="translate(-241.287 -770.71)">
    <path id="cuerpo" d="M149.3,61.206H136.895c-.549,0-1.1,0-1.647,0a1.45,1.45,0,0,1-.179-.012c.085.012.172.024.256.034a1.216,1.216,0,0,1-.278-.077l.232.1a1.226,1.226,0,0,1-.271-.16l.2.152a1.4,1.4,0,0,1-.2-.2l.152.2a1.329,1.329,0,0,1-.16-.271c.031.077.065.155.1.232a1.4,1.4,0,0,1-.077-.278c.012.085.024.172.034.256a6.938,6.938,0,0,1-.012-.9V59.245a5.874,5.874,0,0,1,.048-.771c-.012.085-.024.172-.034.256a5.657,5.657,0,0,1,.394-1.444c-.031.077-.065.155-.1.232a5.687,5.687,0,0,1,.723-1.233l-.152.2a5.74,5.74,0,0,1,1.006-1.006l-.2.152a5.687,5.687,0,0,1,1.233-.723l-.232.1a5.73,5.73,0,0,1,1.444-.394c-.085.012-.172.024-.256.034A8.379,8.379,0,0,1,140,54.592h4.426a9.4,9.4,0,0,1,1.195.048c-.085-.012-.172-.024-.256-.034A5.657,5.657,0,0,1,146.8,55l-.232-.1a5.686,5.686,0,0,1,1.233.723l-.2-.152a5.741,5.741,0,0,1,1.006,1.006l-.152-.2a5.686,5.686,0,0,1,.723,1.233c-.031-.077-.065-.155-.1-.232a5.729,5.729,0,0,1,.394,1.444c-.012-.085-.024-.172-.034-.256a8.721,8.721,0,0,1,.048,1.1v1.2a3.32,3.32,0,0,1-.012.411c.012-.085.024-.172.034-.256a1.217,1.217,0,0,1-.077.278c.031-.077.065-.155.1-.232a1.226,1.226,0,0,1-.16.271l.152-.2a1.4,1.4,0,0,1-.2.2l.2-.152a1.329,1.329,0,0,1-.271.16l.232-.1a1.4,1.4,0,0,1-.278.077c.085-.012.172-.024.256-.034-.053.007-.109.01-.164.012a1.009,1.009,0,0,0-.684.283.968.968,0,0,0,.684,1.652,2.167,2.167,0,0,0,2.044-1.531,3.8,3.8,0,0,0,.085-1.11,14.518,14.518,0,0,0-.118-2.51,6.549,6.549,0,0,0-4.839-5.132,8.594,8.594,0,0,0-2.08-.2H140.1a8.2,8.2,0,0,0-2.131.22,6.551,6.551,0,0,0-4.759,5.19,15.775,15.775,0,0,0-.1,2.484,3.213,3.213,0,0,0,.116,1.146,2.264,2.264,0,0,0,.883,1.117,2.135,2.135,0,0,0,1.127.324c.189,0,.377,0,.566,0h13.5a.969.969,0,0,0,0-1.937Z" transform="translate(108.179 730.383)"/>
    <path id="cabeza" d="M146.094,46.084a5.074,5.074,0,0,1-.041.636c.012-.085.024-.172.034-.256a4.964,4.964,0,0,1-.331,1.221c.031-.077.065-.155.1-.232a4.828,4.828,0,0,1-.624,1.069l.152-.2a4.917,4.917,0,0,1-.868.868l.2-.152a4.925,4.925,0,0,1-1.069.624l.232-.1a4.965,4.965,0,0,1-1.221.331c.085-.012.172-.024.256-.034a4.869,4.869,0,0,1-1.272,0c.085.012.172.024.256.034a4.965,4.965,0,0,1-1.221-.331l.232.1a4.829,4.829,0,0,1-1.069-.624l.2.152a4.917,4.917,0,0,1-.868-.868l.152.2a4.925,4.925,0,0,1-.624-1.069c.031.077.065.155.1.232a4.964,4.964,0,0,1-.331-1.221c.012.085.024.172.034.256a4.87,4.87,0,0,1,0-1.272c-.012.085-.024.172-.034.256a4.964,4.964,0,0,1,.331-1.221c-.031.077-.065.155-.1.232a4.828,4.828,0,0,1,.624-1.069l-.152.2a4.917,4.917,0,0,1,.868-.868l-.2.152A4.925,4.925,0,0,1,140.9,42.5l-.232.1a4.964,4.964,0,0,1,1.221-.331c-.085.012-.172.024-.256.034a4.869,4.869,0,0,1,1.272,0c-.085-.012-.172-.024-.256-.034a4.964,4.964,0,0,1,1.221.331l-.232-.1a4.829,4.829,0,0,1,1.069.624l-.2-.152a4.917,4.917,0,0,1,.868.868l-.152-.2a4.924,4.924,0,0,1,.624,1.069c-.031-.077-.065-.155-.1-.232a4.964,4.964,0,0,1,.331,1.221c-.012-.085-.024-.172-.034-.256a5.579,5.579,0,0,1,.041.636.967.967,0,0,0,1.935,0,5.7,5.7,0,0,0-1.035-3.287,6.639,6.639,0,0,0-.6-.728,6.164,6.164,0,0,0-.713-.614,5.69,5.69,0,0,0-1.509-.8,5.771,5.771,0,0,0-6.295,1.712,6.358,6.358,0,0,0-.561.779,5.949,5.949,0,0,0-.411.859,5.742,5.742,0,0,0,2.9,7.287,5.381,5.381,0,0,0,1.891.525,5.73,5.73,0,0,0,6.237-4.73,6.484,6.484,0,0,0,.089-.992.965.965,0,0,0-1.93-.007Z" transform="translate(108.179 730.383)" fill="#49b7f3"/>
  </g>
</svg>
