<svg xmlns="http://www.w3.org/2000/svg" width="23" height="23" viewBox="0 0 23 23">
  <g id="icon_home" data-name="icon home" transform="translate(-0.515 -0.529)">
    <path id="Trazado_2" data-name="Trazado 2" d="M2.1,3.706A1.091,1.091,0,0,0,1.059,4.758V11a1.112,1.112,0,0,0,1.168,1.036H18.644A1.112,1.112,0,0,0,19.812,11V4.758a1.181,1.181,0,0,0-2.345,0v5.2H3.4v-5.2a.989.989,0,0,0-.384-.789A1.272,1.272,0,0,0,2.1,3.706Z" transform="translate(1.594 11.493)"/>
    <path id="Trazado_3" data-name="Trazado 3" d="M12.019.529a1.205,1.205,0,0,0-.795.307L.917,10.2a.985.985,0,0,0-.37,1.034A1.1,1.1,0,0,0,1.393,12a1.216,1.216,0,0,0,1.139-.336l9.5-8.622,9.5,8.622a1.222,1.222,0,0,0,1.119.3,1.1,1.1,0,0,0,.827-.747.979.979,0,0,0-.323-1.018L12.839.836a1.207,1.207,0,0,0-.82-.307Z" transform="translate(0)" fill="#49b7f3"/>
  </g>
</svg>
