<?xml version="1.0" encoding="utf-8"?>
<!-- Generator: Adobe Illustrator 19.0.0, SVG Export Plug-In . SVG Version: 6.00 Build 0)  -->
<svg version="1.1" id="Capa_1" focusable="false" xmlns="http://www.w3.org/2000/svg" xmlns:xlink="http://www.w3.org/1999/xlink"
	 x="0px" y="0px" viewBox="-255 25 448 512" style="enable-background:new -255 25 448 512;" xml:space="preserve">
<style type="text/css">
	.st0{opacity:0.2;}
</style>
<path class="st0" d="M-255,489c0,26.5,21.5,48,48,48h352c26.5,0,48-21.5,48-48V217h-448V489z M65,293c0-6.6,5.4-12,12-12h40
	c6.6,0,12,5.4,12,12v40c0,6.6-5.4,12-12,12H77c-6.6,0-12-5.4-12-12V293z M65,421c0-6.6,5.4-12,12-12h40c6.6,0,12,5.4,12,12v40
	c0,6.6-5.4,12-12,12H77c-6.6,0-12-5.4-12-12V421z M-63,293c0-6.6,5.4-12,12-12h40c6.6,0,12,5.4,12,12v40c0,6.6-5.4,12-12,12h-40
	c-6.6,0-12-5.4-12-12V293z M-63,421c0-6.6,5.4-12,12-12h40c6.6,0,12,5.4,12,12v40c0,6.6-5.4,12-12,12h-40c-6.6,0-12-5.4-12-12V421z
	 M-191,293c0-6.6,5.4-12,12-12h40c6.6,0,12,5.4,12,12v40c0,6.6-5.4,12-12,12h-40c-6.6,0-12-5.4-12-12V293z M-191,421
	c0-6.6,5.4-12,12-12h40c6.6,0,12,5.4,12,12v40c0,6.6-5.4,12-12,12h-40c-6.6,0-12-5.4-12-12V421z M145,89H97V41c0-8.8-7.2-16-16-16
	H49c-8.8,0-16,7.2-16,16v48H-95V41c0-8.8-7.2-16-16-16h-32c-8.8,0-16,7.2-16,16v48h-48c-26.5,0-48,21.5-48,48v48h448v-48
	C193,110.5,171.5,89,145,89z"/>
</svg>
